M48
INCH,TZ
FMAT,2
ICI,OFF
T01C.012F095S3
T02C.035F197S55
T03C.035F197S55
T04C.03937F197S55
T05C.043F139S55
T06C.05118F107S55
T07C.07087F081S55
T08C.09449F066S55
T09C.13F035S794
%
T01
G05
X2838Y-18322
X3348Y-17132
X4858Y-22062
X5408Y-16882
X5248Y-13862
X5098Y-12552
X5338Y-9672
X5358Y-8302
X7088Y-25852
X6488Y-25162
X7108Y-23072
X6488Y-22962
X6478Y-18792
X5898Y-18422
X6898Y-16922
X6448Y-16462
X7058Y-14342
X6378Y-13662
X6408Y-10302
X8378Y-27792
X7528Y-26532
X7388Y-12612
X8508Y-25552
X7708Y-22432
X7658Y-16882
X8888Y-23052
X8028Y-19302
X8268Y-12522
X8428Y-10242
X8128Y-9382
X7438Y-8482
X8208Y-7462
X8378Y-6952
X7448Y-5702
X9298Y-1732
X9288Y-6702
X10658Y-25722
X10788Y-24652
X9918Y-12392
X11078Y-19012
X11308Y-14512
X11318Y-13182
X10418Y-10302
X10388Y-8192
X10068Y-6802
X9988Y-1762
X12188Y-25212
X11788Y-23682
X12228Y-22642
X11438Y-18602
X12328Y-16962
X11548Y-14102
X11398Y-6982
X12618Y-25272
X13158Y-23582
X12658Y-22962
X13278Y-22022
X13828Y-21362
X13048Y-20582
X13488Y-17432
X12828Y-16252
X12828Y-15612
X12858Y-14912
X13318Y-13552
X13438Y-11472
X12648Y-11172
X11838Y-6562
X12408Y-6772
X13108Y-7122
X13428Y-9212
X12598Y-5532
X14648Y-29892
X14708Y-27692
X13728Y-14632
X14758Y-23512
X14728Y-20622
X13758Y-13152
X14828Y-18932
X14788Y-16862
X14348Y-15542
X14128Y-13362
X14378Y-11462
X14858Y-10822
X14638Y-8192
X14358Y-6692
X13928Y-6492
X13388Y-4832
X13578Y-4092
X15538Y-29412
X15788Y-28172
X15288Y-26902
X15728Y-23532
X15168Y-23242
X15178Y-22262
X15258Y-17752
X15718Y-13342
X14938Y-13332
X15448Y-11462
X14968Y-11202
X14848Y-5972
X15898Y-8112
X15888Y-7362
X14948Y-6862
X15658Y-6692
X14948Y-1872
X16638Y-28902
X16178Y-28322
X16148Y-18022
X17168Y-27982
X16858Y-25792
X16778Y-23492
X16178Y-23352
X16828Y-20862
X17168Y-16382
X16178Y-10492
X15638Y-1722
X18198Y-29832
X17208Y-18452
X17338Y-15592
X17208Y-10782
X19198Y-29812
X18258Y-27612
X18698Y-26762
X18468Y-25632
X17708Y-25442
X18108Y-23552
X18468Y-22282
X17728Y-21352
X18088Y-19792
X18248Y-17052
X18178Y-13752
X18328Y-11472
X18068Y-6802
X18168Y-5122
X20238Y-29672
X20378Y-28352
X20208Y-26962
X19598Y-26792
X19348Y-24482
X19418Y-17752
X20658Y-25212
X20398Y-22802
X19808Y-22672
X20378Y-15202
X20518Y-12842
X20438Y-12322
X20078Y-10892
X19468Y-10872
X20118Y-8052
X19418Y-7992
X20668Y-7902
X19678Y-6632
X18678Y-3542
X19748Y-4322
X20768Y-23952
X21208Y-23552
X20848Y-11672
X20698Y-3652
X22218Y-29202
X22228Y-26932
X22458Y-25172
X23048Y-23592
X22118Y-16812
X21968Y-16302
X21948Y-15192
X21668Y-13592
X21178Y-12322
X23148Y-26852
X23328Y-25342
X23438Y-22472
X23108Y-21102
X22548Y-17442
X22578Y-16572
X23898Y-20252
X23638Y-16862
X23068Y-16532
X23058Y-15332
X23638Y-15012
X23658Y-13432
X22918Y-13162
X22568Y-12472
X22898Y-11662
X23518Y-10972
X22988Y-9802
X22508Y-9762
X24058Y-28452
X23288Y-9202
X22548Y-8992
X23108Y-8702
X23618Y-8682
X23388Y-8392
X22788Y-8122
X22318Y-7822
X22658Y-4732
X24708Y-29612
X24678Y-27882
X24318Y-27402
X24288Y-25302
X23938Y-23092
X24158Y-22202
X24348Y-21392
X24028Y-20812
X23998Y-15192
X23728Y-10572
X23808Y-9062
X23868Y-8122
X23868Y-7482
X23098Y-6992
X23208Y-2132
X24918Y-24152
X24888Y-23032
X25198Y-20282
X25568Y-20082
X25028Y-19652
X25218Y-18992
X25028Y-18182
X25738Y-16962
X25218Y-14802
X24938Y-14452
X24738Y-13692
X25528Y-13592
X25568Y-13162
X24648Y-12972
X24708Y-12342
X23958Y-11652
X25628Y-11822
X25308Y-11442
X24718Y-9562
X24728Y-7342
X24198Y-5342
X24528Y-4872
X26248Y-30492
X26508Y-26292
X26328Y-25862
X26638Y-23782
X26498Y-23402
X26268Y-22102
X26658Y-20522
X26078Y-20252
X26488Y-18912
X26308Y-17072
X25748Y-11192
X25498Y-10312
X25748Y-9492
X25308Y-9202
X25498Y-8442
X25858Y-8122
X25508Y-7842
X25518Y-5192
X25278Y-3592
X26848Y-28732
X26928Y-27982
X27958Y-27312
X27638Y-26792
X26758Y-22942
X27298Y-18762
X27028Y-16402
X26138Y-15572
X27098Y-14312
X26728Y-12292
X26748Y-11412
X26268Y-10582
X26368Y-7822
X27088Y-6982
X26668Y-6632
X26438Y-2712
X28158Y-25952
X28738Y-24082
X29048Y-22782
X28438Y-22762
X28168Y-21832
X28158Y-21332
X28098Y-19652
X27208Y-12512
X27178Y-10922
X28778Y-19532
X28378Y-18282
X29068Y-18242
X28238Y-17882
X28188Y-17202
X27328Y-15502
X28318Y-13442
X27788Y-10652
X28328Y-10302
X28308Y-9222
X28148Y-8672
X28148Y-8302
X28068Y-5052
X27428Y-4132
X29648Y-22882
X29338Y-22592
X29538Y-21842
X29308Y-21462
X29548Y-19512
X29408Y-18142
X28878Y-17202
X29198Y-16172
X29258Y-14062
X28958Y-12152
X29308Y-8962
X28958Y-7922
X28758Y-7562
X29098Y-7112
X28888Y-5352
X28678Y-4892
X27738Y-4552
X27758Y-2172
X29828Y-28972
X29888Y-17552
X29008Y-3832
X30748Y-29032
X30338Y-26932
X31238Y-26792
X30628Y-24472
X30948Y-24132
X30318Y-24082
X29988Y-21472
X31238Y-22752
X30648Y-22742
X29988Y-22732
X30468Y-20872
X31038Y-20252
X30128Y-19802
X30748Y-19632
X31288Y-19412
X30928Y-18242
X30208Y-18162
X30428Y-17512
X30248Y-15682
X29968Y-15412
X30018Y-13562
X30228Y-12502
X31268Y-16742
X30648Y-15222
X31398Y-14952
X30968Y-14002
X30568Y-13282
X30958Y-12232
X30408Y-9162
X30238Y-7422
X29908Y-7122
X29828Y-4482
X29558Y-3652
X31838Y-26992
X32448Y-26522
X31888Y-26392
X31468Y-24472
X30648Y-7632
X32988Y-24142
X32678Y-21152
X32678Y-20482
X32648Y-19892
X31768Y-18112
X32088Y-17902
X31978Y-17162
X31768Y-14362
X31658Y-13502
X31978Y-7002
X32108Y-3222
X33118Y-29042
X33618Y-27302
X33848Y-26412
X33158Y-24632
X33458Y-24302
X34008Y-23052
X33198Y-22852
X33268Y-22442
X33468Y-22022
X33608Y-21692
X33458Y-21022
X33198Y-13822
X33048Y-13512
X32808Y-10372
X33108Y-9912
X32948Y-9272
X33278Y-8292
X32578Y-7642
X33288Y-5602
X32768Y-4292
X34908Y-29292
X35108Y-26772
X35178Y-25912
X34698Y-24272
X34838Y-22162
X35188Y-21442
X34738Y-19972
X34708Y-18342
X34308Y-17162
X33538Y-14352
X34758Y-16622
X34218Y-16112
X34758Y-15642
X34798Y-14382
X34648Y-13522
X33748Y-13302
X34088Y-12832
X34658Y-12092
X34118Y-12082
X34168Y-10262
X34158Y-8582
X34728Y-4572
X35818Y-28102
X35408Y-11262
X35038Y-6762
X35298Y-3832
X37528Y-28042
X36538Y-27872
X35718Y-24022
X36958Y-27372
X36458Y-22622
X36478Y-21762
X36508Y-21052
X36468Y-20292
X35708Y-17132
X35808Y-16052
X35588Y-14312
X35818Y-13612
X35708Y-11962
X36658Y-10822
X35668Y-10382
X35818Y-8802
X36108Y-8172
X36058Y-7572
X35708Y-4532
X36178Y-4392
X38188Y-22872
X38118Y-22222
X38138Y-21302
X38108Y-20492
X38058Y-18042
X37538Y-13662
X38108Y-13472
X38088Y-12872
X37208Y-12872
X38098Y-11422
X37628Y-9922
X37488Y-8812
X38668Y-9862
X37828Y-8152
X37858Y-7552
X37718Y-5322
X36728Y-4962
X38788Y-10982
X39888Y-22972
X39958Y-22342
X39858Y-19112
X39608Y-17852
X39998Y-17422
X40398Y-16252
X39998Y-13572
X40008Y-11372
X40018Y-10742
X39418Y-10372
X41418Y-16452
X40978Y-15422
X40498Y-12452
X41548Y-12752
X40978Y-11032
T02
X8486Y-5882
X16360Y-5882
X13908Y-10672
X36658Y-7172
X37808Y-16192
X38808Y-16192
X37808Y-15192
X38808Y-15192
X38808Y-14192
X37808Y-14192
X10678Y-28137G85X10678Y-27187
X9858Y-27107G85X9858Y-26157
T03
G05
X15582Y-28718
X17314Y-28718
T04
X12912Y-30082
X11928Y-30082
X15408Y-9672
X15408Y-8672
X18408Y-8672
X18408Y-9672
X25738Y-29972
X26722Y-29972
X29822Y-29932
X28838Y-29932
X32301Y-29862
X33088Y-29862
X33875Y-29862
X9001Y-28742G85X8095Y-28742
T05
G05
X23108Y-6172
X22108Y-6172
X25108Y-6172
X24108Y-6172
X27708Y-25172
X26708Y-25172
X25708Y-25172
X26108Y-6172
X28108Y-6172
X27108Y-6172
X29108Y-6172
X28708Y-25172
X29708Y-25172
X30708Y-25172
X30708Y-6172
X31708Y-6172
X32708Y-25172
X33708Y-25172
X32708Y-6172
X33708Y-6172
X35708Y-25172
X34708Y-25172
X34708Y-6172
X36708Y-25172
X36158Y-9422
X35708Y-6172
X37708Y-25172
X38158Y-9422
X37158Y-9422
X36708Y-6172
X37708Y-6172
X40158Y-9422
X39158Y-9422
X41158Y-9422
T06
X31474Y-29862
X34702Y-29862
T07
X1658Y-21922
X1658Y-19922
X1658Y-12422
X1658Y-10422
X3658Y-21922
X2658Y-20922
X3658Y-19922
X3658Y-12422
X2658Y-11422
X3658Y-10422
T08
X6108Y-26952
X12048Y-26942
T09
X6208Y-29572
X6208Y-2800
X36514Y-2800
X36514Y-29572
M30
