*
%LPD*%
%LNSABOTEN3G-MB*%
%FSLAX25Y25*%
%MOIN*%
%AD*%
%AD*%
%ADD19C,0.25*%
%ADD20R,0.065X0.065*%
%ADD21C,0.065*%
%ADD25R,0.06X0.06*%
%ADD26C,0.06*%
%ADD31R,0.078740157X0.078740157*%
%ADD41R,0.064959843X0.064959843*%
%ADD42C,0.064959843*%
%ADD64C,0.098429921*%
%ADD65C,0.062990157*%
%ADD68C,0.070870079*%
%ADD69C,0.055*%
%ADD80C,0.05*%
%ADD130R,0.157479921X0.059059843*%
%ADD131R,0.059059843X0.157479921*%
%ADD135R,0.027559843X0.059059843*%
%ADD136R,0.047240157X0.0315*%
%ADD137R,0.047240157X0.047240157*%
%ADD138R,0.047240157X0.110240157*%
%ADD139R,0.062990157X0.0748*%
G54D19*
%SRX1Y1I0.0J0.0*%
G1X365138Y-295716D3*
G1X62075Y-27999D3*
G1X365138Y-27999D3*
G1X62075Y-295716D3*
G54D20*
G1X257075Y-251716D3*
G1X291075Y-61716D3*
G1X327075Y-251716D3*
G1X377075Y-61716D3*
G1X411575Y-94216D3*
G54D21*
G1X267075Y-251716D3*
G1X277075Y-251716D3*
G1X287075Y-251716D3*
G1X297075Y-251716D3*
G1X307075Y-251716D3*
G1X281075Y-61716D3*
G1X271075Y-61716D3*
G1X261075Y-61716D3*
G1X251075Y-61716D3*
G1X241075Y-61716D3*
G1X231075Y-61716D3*
G1X221075Y-61716D3*
G1X337075Y-251716D3*
G1X347075Y-251716D3*
G1X357075Y-251716D3*
G1X367075Y-251716D3*
G1X377075Y-251716D3*
G1X367075Y-61716D3*
G1X357075Y-61716D3*
G1X347075Y-61716D3*
G1X337075Y-61716D3*
G1X327075Y-61716D3*
G1X317075Y-61716D3*
G1X307075Y-61716D3*
G1X401575Y-94216D3*
G1X391575Y-94216D3*
G1X381575Y-94216D3*
G1X371575Y-94216D3*
G1X361575Y-94216D3*
G54D25*
G1X378075Y-141916D3*
G54D26*
G1X163593Y-58816D3*
G1X84853Y-58816D3*
G1X120475Y-269416D3*
G1X61075Y-269516D3*
G1X388075Y-141916D3*
G1X378075Y-151916D3*
G1X388075Y-151916D3*
G1X378075Y-161916D3*
G1X388075Y-161916D3*
G54D31*
G1X92795Y-66716D3*
G1X156575Y-66716D3*
G1X92795Y-16794D3*
G1X156575Y-16794D3*
G54D41*
G1X257375Y-299716D3*
G1X288375Y-299316D3*
G1X184075Y-96716D3*
G1X119275Y-300816D3*
G54D42*
G1X267217Y-299716D3*
G1X298217Y-299316D3*
G1X184075Y-86716D3*
G1X154075Y-86716D3*
G1X154075Y-96716D3*
G1X129117Y-300816D3*
G54D64*
G1X26575Y-209216D3*
G1X36575Y-219216D3*
G1X36575Y-199216D3*
G1X16575Y-219216D3*
G1X16575Y-199216D3*
G1X26575Y-114216D3*
G1X36575Y-124216D3*
G1X36575Y-104216D3*
G1X16575Y-124216D3*
G1X16575Y-104216D3*
G54D65*
G1X338749Y-298616D3*
G1X330875Y-298616D3*
G1X323001Y-298616D3*
G54D68*
G1X314733Y-298616D3*
G1X347016Y-298616D3*
G54D69*
G1X366575Y-71716D3*
G1X139075Y-106716D3*
G54D80*
G1X173136Y-287173D3*
G1X155813Y-287173D3*
G54D130*
G1X85475Y-287416D3*
G54D131*
G1X98575Y-266316D3*
G1X106775Y-276616D3*
G54D135*
G1X211575Y-246125D3*
G1X215905Y-246125D3*
G1X220236Y-246125D3*
G1X224567Y-246125D3*
G1X228897Y-246125D3*
G1X233228Y-246125D3*
G1X237559Y-246125D3*
G1X241890Y-246125D3*
G1X245630Y-246125D3*
G1X205472Y-246125D3*
G1X98937Y-75968D3*
G1X103937Y-75968D3*
G1X108937Y-75968D3*
G1X113937Y-75968D3*
G1X118937Y-75968D3*
G1X123937Y-75968D3*
G54D136*
G1X249764Y-288054D3*
G54D137*
G1X249764Y-263645D3*
G54D138*
G1X249764Y-304393D3*
G54D139*
G1X195630Y-306164D3*
M2*
