*
%LPD*%
%LNSABOTEN3G-PT*%
%FSLAX25Y25*%
%MOIN*%
%AD*%
%AD*%
%ADD99C,0.04*%
%ADD102R,0.035X0.039*%
%ADD103R,0.039X0.035*%
%ADD104R,0.125979921X0.062990157*%
%ADD105R,0.05X0.058*%
%ADD106R,0.062990157X0.125979921*%
%ADD107R,0.055120079X0.070870079*%
%ADD108R,0.019690157X0.09055*%
%ADD109R,0.078740157X0.098429921*%
%ADD110R,0.066929921X0.141729921*%
%ADD111O,0.066929921X0.023620079*%
%ADD112O,0.023620079X0.066929921*%
%ADD113R,0.098429921X0.055120079*%
%ADD114O,0.059059843X0.01575*%
%ADD115R,0.04X0.035*%
%ADD116R,0.06X0.04*%
%ADD117R,0.07X0.15*%
%ADD118R,0.055120079X0.023620079*%
%ADD119R,0.03X0.06*%
%ADD120R,0.02X0.06*%
%ADD121R,0.06X0.03*%
%ADD122R,0.06X0.02*%
%ADD123O,0.082679921X0.023620079*%
%ADD124R,0.12205X0.043309843*%
%ADD125R,0.37795X0.417320079*%
%ADD126R,0.217X0.08*%
%ADD127O,0.024X0.098429921*%
%ADD128O,0.098429921X0.024*%
%ADD129R,0.059059843X0.035429921*%
%ADD133R,0.062990157X0.16535*%
%ADD158R,0.16535X0.062990157*%
G54D99*
%SRX1Y1I0.0J0.0*%
G1X321075Y-187215D3*
G1X272075Y-236215D3*
G54D102*
G1X226575Y-153815D3*
G1X226575Y-159615D3*
G1X48975Y-209215D3*
G1X48975Y-215015D3*
G1X78675Y-215115D3*
G1X78675Y-209315D3*
G1X73875Y-114315D3*
G1X73875Y-120115D3*
G1X50875Y-114315D3*
G1X50875Y-120115D3*
G1X70875Y-209315D3*
G1X70875Y-215115D3*
G1X211575Y-59615D3*
G1X211575Y-53815D3*
G1X78975Y-146515D3*
G1X78975Y-140715D3*
G1X78975Y-154715D3*
G1X78975Y-160515D3*
G1X71075Y-160615D3*
G1X71075Y-154815D3*
G1X56775Y-217715D3*
G1X56775Y-223515D3*
G1X251775Y-279115D3*
G1X251775Y-273315D3*
G1X333875Y-283015D3*
G1X333875Y-277215D3*
G54D103*
G1X221175Y-136715D3*
G1X226975Y-136715D3*
G1X64875Y-223815D3*
G1X70675Y-223815D3*
G1X306975Y-39215D3*
G1X301175Y-39215D3*
G1X338675Y-39215D3*
G1X344475Y-39215D3*
G1X300975Y-170915D3*
G1X295175Y-170915D3*
G1X254475Y-211715D3*
G1X248675Y-211715D3*
G1X292275Y-242315D3*
G1X298075Y-242315D3*
G1X224475Y-243115D3*
G1X218675Y-243115D3*
G1X366175Y-81715D3*
G1X371975Y-81715D3*
G1X316975Y-116715D3*
G1X311175Y-116715D3*
G1X97075Y-102715D3*
G1X91275Y-102715D3*
G1X88775Y-114215D3*
G1X82975Y-114215D3*
G1X59475Y-78215D3*
G1X53675Y-78215D3*
G1X204475Y-89215D3*
G1X198675Y-89215D3*
G1X204475Y-96715D3*
G1X198675Y-96715D3*
G1X59475Y-70715D3*
G1X53675Y-70715D3*
G1X318975Y-276015D3*
G1X324775Y-276015D3*
G1X59475Y-63215D3*
G1X53675Y-63215D3*
G1X63075Y-209115D3*
G1X57275Y-209115D3*
G1X65775Y-114215D3*
G1X59975Y-114215D3*
G1X68675Y-78215D3*
G1X74475Y-78215D3*
G1X309475Y-281715D3*
G1X303675Y-281715D3*
G1X303675Y-274215D3*
G1X309475Y-274215D3*
G1X368275Y-103715D3*
G1X362475Y-103715D3*
G1X263675Y-51715D3*
G1X269475Y-51715D3*
G1X68675Y-63215D3*
G1X74475Y-63215D3*
G1X376975Y-261715D3*
G1X371175Y-261715D3*
G1X356175Y-261715D3*
G1X361975Y-261715D3*
G1X68675Y-70715D3*
G1X74475Y-70715D3*
G1X224475Y-235615D3*
G1X218675Y-235615D3*
G1X213675Y-89215D3*
G1X219475Y-89215D3*
G1X236975Y-196715D3*
G1X231175Y-196715D3*
G1X236975Y-181715D3*
G1X231175Y-181715D3*
G1X236975Y-189215D3*
G1X231175Y-189215D3*
G1X341175Y-116715D3*
G1X346975Y-116715D3*
G1X326175Y-116715D3*
G1X331975Y-116715D3*
G1X236975Y-174215D3*
G1X231175Y-174215D3*
G1X146475Y-257215D3*
G1X152275Y-257215D3*
G1X414475Y-194215D3*
G1X408675Y-194215D3*
G1X291975Y-274215D3*
G1X286175Y-274215D3*
G1X408675Y-186715D3*
G1X414475Y-186715D3*
G1X381075Y-103715D3*
G1X386875Y-103715D3*
G1X269475Y-99215D3*
G1X263675Y-99215D3*
G1X213675Y-96715D3*
G1X219475Y-96715D3*
G1X226975Y-51715D3*
G1X221175Y-51715D3*
G1X286175Y-281715D3*
G1X291975Y-281715D3*
G1X324775Y-283515D3*
G1X318975Y-283515D3*
G54D104*
G1X260945Y-164215D3*
G1X282205Y-164215D3*
G1X31245Y-145615D3*
G1X52505Y-145615D3*
G1X218445Y-116715D3*
G1X239705Y-116715D3*
G1X221945Y-262815D3*
G1X243205Y-262815D3*
G54D105*
G1X360775Y-273615D3*
G1X368975Y-273615D3*
G1X255675Y-221715D3*
G1X247475Y-221715D3*
G1X275675Y-114215D3*
G1X267475Y-114215D3*
G54D106*
G1X409075Y-174845D3*
G1X409075Y-153585D3*
G54D107*
G1X388275Y-179815D3*
G1X373875Y-179815D3*
G1X93775Y-301715D3*
G1X79375Y-301715D3*
G1X330775Y-264515D3*
G1X345175Y-264515D3*
G1X262675Y-280115D3*
G1X277075Y-280115D3*
G54D108*
G1X158176Y-272015D3*
G1X161325Y-272015D3*
G1X164475Y-272015D3*
G1X167625Y-272015D3*
G1X170774Y-272015D3*
G54D109*
G1X146955Y-276897D3*
G1X181995Y-276897D3*
G1X146955Y-298551D3*
G1X181995Y-298551D3*
G54D110*
G1X328858Y-171715D3*
G1X364292Y-171715D3*
G54D111*
G1X388492Y-128715D3*
G1X388492Y-123715D3*
G1X388492Y-118715D3*
G1X388492Y-113715D3*
G1X365658Y-113715D3*
G1X365658Y-118715D3*
G1X365658Y-123715D3*
G1X365658Y-128715D3*
G54D112*
G1X186575Y-73133D3*
G1X191575Y-73133D3*
G1X196575Y-73133D3*
G1X201575Y-73133D3*
G1X201575Y-50298D3*
G1X196575Y-50298D3*
G1X191575Y-50298D3*
G1X186575Y-50298D3*
G54D113*
G1X317677Y-143074D3*
G1X355473Y-143074D3*
G1X355473Y-125357D3*
G1X317677Y-125357D3*
G1X202777Y-301774D3*
G1X240573Y-301774D3*
G1X240573Y-284057D3*
G1X202777Y-284057D3*
G54D114*
G1X270886Y-91893D3*
G1X270886Y-89333D3*
G1X270886Y-86774D3*
G1X270886Y-84215D3*
G1X270886Y-81656D3*
G1X270886Y-79097D3*
G1X270886Y-76538D3*
G1X247264Y-76538D3*
G1X247264Y-79097D3*
G1X247264Y-81656D3*
G1X247264Y-84215D3*
G1X247264Y-86774D3*
G1X247264Y-89333D3*
G1X247264Y-91893D3*
G54D115*
G1X218475Y-78015D3*
G1X218475Y-70515D3*
G1X209675Y-74315D3*
G54D116*
G1X282775Y-143215D3*
G1X282775Y-134215D3*
G1X282775Y-125215D3*
G54D117*
G1X255775Y-134215D3*
G54D118*
G1X351499Y-281556D3*
G1X351499Y-277815D3*
G1X351499Y-274075D3*
G1X342051Y-274075D3*
G1X342051Y-281556D3*
G54D119*
G1X312875Y-188715D3*
G1X280375Y-188715D3*
G1X280375Y-234715D3*
G1X312875Y-234715D3*
G54D120*
G1X309275Y-188715D3*
G1X306075Y-188715D3*
G1X302975Y-188715D3*
G1X299775Y-188715D3*
G1X296675Y-188715D3*
G1X293475Y-188715D3*
G1X290375Y-188715D3*
G1X287175Y-188715D3*
G1X284075Y-188715D3*
G1X284075Y-234715D3*
G1X287175Y-234715D3*
G1X290375Y-234715D3*
G1X293475Y-234715D3*
G1X296675Y-234715D3*
G1X299775Y-234715D3*
G1X302975Y-234715D3*
G1X306075Y-234715D3*
G1X309275Y-234715D3*
G54D121*
G1X273575Y-195415D3*
G1X273575Y-227915D3*
G1X319575Y-227915D3*
G1X319575Y-195415D3*
G54D122*
G1X273575Y-199015D3*
G1X273575Y-202215D3*
G1X273575Y-205315D3*
G1X273575Y-208515D3*
G1X273575Y-211615D3*
G1X273575Y-214815D3*
G1X273575Y-217915D3*
G1X273575Y-221115D3*
G1X273575Y-224215D3*
G1X319575Y-224215D3*
G1X319575Y-221115D3*
G1X319575Y-217915D3*
G1X319575Y-214815D3*
G1X319575Y-211615D3*
G1X319575Y-208515D3*
G1X319575Y-205315D3*
G1X319575Y-202215D3*
G1X319575Y-199015D3*
G54D123*
G1X349685Y-109215D3*
G1X349685Y-104215D3*
G1X349685Y-99215D3*
G1X349685Y-94215D3*
G1X349685Y-89215D3*
G1X349685Y-84215D3*
G1X349685Y-79215D3*
G1X349685Y-74215D3*
G1X313465Y-74215D3*
G1X313465Y-79215D3*
G1X313465Y-84215D3*
G1X313465Y-89215D3*
G1X313465Y-94215D3*
G1X313465Y-99215D3*
G1X313465Y-104215D3*
G1X313465Y-109215D3*
G54D124*
G1X410591Y-230101D3*
G1X410591Y-223408D3*
G1X410591Y-216715D3*
G1X410591Y-210022D3*
G1X410591Y-203330D3*
G54D125*
G1X375551Y-216715D3*
G54D126*
G1X302875Y-23615D3*
G1X340475Y-23615D3*
G54D127*
G1X114173Y-244845D3*
G1X118110Y-244845D3*
G1X122047Y-244845D3*
G1X125984Y-244845D3*
G1X129921Y-244845D3*
G1X133858Y-244845D3*
G1X137795Y-244845D3*
G1X141732Y-244845D3*
G1X145670Y-244845D3*
G1X149607Y-244845D3*
G1X153544Y-244845D3*
G1X157481Y-244845D3*
G1X161418Y-244845D3*
G1X165355Y-244845D3*
G1X169292Y-244845D3*
G1X173229Y-244845D3*
G1X177166Y-244845D3*
G1X181103Y-244845D3*
G1X185040Y-244845D3*
G1X188977Y-244845D3*
G1X188977Y-123585D3*
G1X185040Y-123585D3*
G1X181103Y-123585D3*
G1X177166Y-123585D3*
G1X173229Y-123585D3*
G1X169292Y-123585D3*
G1X165355Y-123585D3*
G1X161418Y-123585D3*
G1X157481Y-123585D3*
G1X153544Y-123585D3*
G1X149607Y-123585D3*
G1X145670Y-123585D3*
G1X141732Y-123585D3*
G1X137795Y-123585D3*
G1X133858Y-123585D3*
G1X129921Y-123585D3*
G1X125984Y-123585D3*
G1X122047Y-123585D3*
G1X118110Y-123585D3*
G1X114173Y-123585D3*
G54D128*
G1X212205Y-221617D3*
G1X212205Y-217680D3*
G1X212205Y-213743D3*
G1X212205Y-209806D3*
G1X212205Y-205869D3*
G1X212205Y-201932D3*
G1X212205Y-197995D3*
G1X212205Y-194058D3*
G1X212205Y-190121D3*
G1X212205Y-186184D3*
G1X212205Y-182247D3*
G1X212205Y-178310D3*
G1X212205Y-174373D3*
G1X212205Y-170436D3*
G1X212205Y-166499D3*
G1X212205Y-162562D3*
G1X212205Y-158625D3*
G1X212205Y-154688D3*
G1X212205Y-150751D3*
G1X212205Y-146814D3*
G1X90945Y-146814D3*
G1X90945Y-150751D3*
G1X90945Y-154688D3*
G1X90945Y-158625D3*
G1X90945Y-162562D3*
G1X90945Y-166499D3*
G1X90945Y-170436D3*
G1X90945Y-174373D3*
G1X90945Y-178310D3*
G1X90945Y-182247D3*
G1X90945Y-186184D3*
G1X90945Y-190121D3*
G1X90945Y-194058D3*
G1X90945Y-197995D3*
G1X90945Y-201932D3*
G1X90945Y-205869D3*
G1X90945Y-209806D3*
G1X90945Y-213743D3*
G1X90945Y-217680D3*
G1X90945Y-221617D3*
G54D129*
G1X209671Y-273515D3*
G1X196679Y-273515D3*
G1X258071Y-174215D3*
G1X245079Y-174215D3*
G1X177771Y-73415D3*
G1X164779Y-73415D3*
G1X258071Y-196715D3*
G1X245079Y-196715D3*
G1X258071Y-189215D3*
G1X245079Y-189215D3*
G1X258071Y-181715D3*
G1X245079Y-181715D3*
G54D133*
G1X408875Y-136014D3*
G1X408875Y-110817D3*
G1X340675Y-204917D3*
G1X340675Y-230114D3*
G54D158*
G1X206477Y-28115D3*
G1X231673Y-28115D3*
G1X161477Y-28315D3*
G1X186673Y-28315D3*
G1X28477Y-176815D3*
G1X53673Y-176815D3*
G1X252277Y-28115D3*
G1X277473Y-28115D3*
M2*
